<?xml version="1.0" standalone="no"?>
<!DOCTYPE svg PUBLIC "-//W3C//DTD SVG 20010904//EN"
 "http://www.w3.org/TR/2001/REC-SVG-20010904/DTD/svg10.dtd">
<svg version="1.0" xmlns="http://www.w3.org/2000/svg"
 width="720.000000pt" height="720.000000pt" viewBox="0 0 720.000000 720.000000"
 preserveAspectRatio="xMidYMid meet">
<metadata>
Created by potrace 1.14, written by Peter Selinger 2001-2017
</metadata>
<g transform="translate(0.000000,720.000000) scale(0.100000,-0.100000)"
fill="#000000" stroke="none">
<path d="M3167 6285 c-12 -8 -17 -26 -17 -57 0 -28 -6 -50 -14 -58 -11 -9 -12
-17 -5 -34 15 -32 47 -49 99 -51 39 -3 49 1 78 31 43 45 45 99 3 146 -25 28
-36 33 -78 34 -27 1 -57 -4 -66 -11z"/>
<path d="M3493 6280 c-19 -8 -32 -30 -40 -70 -5 -28 19 -69 50 -83 20 -10 79
-17 157 -21 69 -3 143 -8 165 -12 22 -3 54 -7 70 -9 36 -4 94 -14 115 -20 8
-2 29 -7 45 -10 17 -2 40 -7 53 -10 12 -3 30 -7 40 -9 9 -2 44 -11 77 -20 33
-10 67 -19 75 -21 8 -2 15 -4 15 -5 0 -1 11 -3 24 -6 14 -2 30 -9 38 -15 7 -6
13 -9 13 -6 0 4 20 -2 44 -13 24 -10 47 -16 50 -13 3 4 6 0 6 -7 0 -7 3 -11 6
-7 4 3 23 -2 44 -13 21 -11 40 -16 44 -13 3 4 6 1 6 -5 0 -7 6 -12 13 -12 6 0
34 -11 61 -25 27 -14 55 -25 63 -25 7 0 13 -3 13 -8 0 -4 17 -15 38 -24 20
-10 60 -31 87 -48 28 -16 57 -33 65 -37 66 -30 352 -245 433 -325 21 -21 43
-38 49 -38 6 0 9 -2 6 -5 -2 -3 25 -35 61 -73 89 -91 125 -132 203 -232 67
-87 220 -323 226 -350 2 -8 8 -17 12 -20 5 -3 16 -22 24 -42 9 -20 20 -40 26
-43 6 -4 8 -10 6 -13 -2 -4 4 -18 14 -32 16 -21 27 -24 89 -26 77 -2 106 11
94 44 -23 59 -184 354 -204 372 -3 3 -16 23 -29 45 -13 22 -29 45 -35 52 -30
36 -35 43 -35 53 0 5 -4 10 -8 10 -4 0 -15 12 -24 28 -9 15 -28 39 -42 54 -14
15 -26 30 -26 33 0 3 -13 20 -29 38 -142 156 -154 169 -318 324 -13 12 -23 20
-23 18 0 -3 -8 3 -18 13 -47 45 -134 112 -237 183 -209 144 -472 275 -715 354
-63 21 -122 40 -130 43 -8 3 -19 7 -25 8 -5 1 -12 3 -15 4 -3 1 -14 4 -25 6
-11 2 -47 10 -80 18 -80 20 -113 27 -155 31 -19 2 -46 6 -59 9 -13 3 -46 8
-75 11 -28 3 -69 8 -91 11 -80 9 -261 12 -282 4z"/>
<path d="M2920 6149 c-17 -30 -8 -62 21 -78 22 -12 31 -12 58 -2 17 7 28 17
25 22 -3 5 -1 9 4 9 15 0 2 43 -16 58 -26 20 -80 15 -92 -9z"/>
<path d="M3368 5885 c-2 -3 -37 -7 -78 -10 -87 -6 -135 -12 -170 -20 -14 -3
-34 -8 -45 -10 -21 -4 -61 -12 -105 -21 -14 -3 -31 -6 -37 -6 -7 -1 -13 -5
-13 -9 0 -4 -6 -6 -12 -6 -13 1 -89 -18 -118 -30 -8 -3 -23 -8 -34 -10 -10 -2
-33 -9 -50 -17 -35 -16 -66 -28 -81 -32 -39 -10 -298 -135 -303 -146 -2 -5 -9
-8 -15 -8 -7 0 -48 -23 -92 -51 -44 -28 -81 -51 -83 -50 -2 1 -11 -6 -20 -16
-9 -11 -33 -29 -52 -41 -19 -11 -47 -32 -61 -44 -15 -13 -44 -36 -65 -53 -119
-90 -405 -413 -447 -502 -6 -13 -14 -23 -19 -23 -4 0 -8 -7 -8 -15 0 -8 -5
-15 -12 -15 -6 0 -9 -3 -5 -6 3 -4 -4 -21 -17 -38 -12 -17 -38 -61 -56 -97
-48 -93 -45 -95 129 -98 76 -1 149 1 162 4 13 3 34 21 47 38 70 100 149 206
171 232 55 63 249 252 299 290 29 22 67 52 85 67 17 15 60 44 95 64 34 20 62
41 62 46 0 5 4 7 9 3 5 -3 12 -1 16 5 12 19 339 172 400 187 6 1 57 16 115 34
58 17 116 32 130 34 14 2 36 6 50 9 14 3 39 8 55 11 17 3 44 7 60 10 57 10
191 18 295 18 142 0 255 -9 352 -29 15 -3 41 -7 58 -9 18 -3 40 -7 50 -10 10
-3 27 -7 37 -9 99 -19 320 -98 416 -148 23 -12 49 -23 57 -24 8 -2 16 -8 18
-13 2 -6 12 -11 23 -11 10 0 19 -4 19 -10 0 -5 5 -10 10 -10 12 0 168 -97 187
-116 7 -7 22 -16 33 -19 11 -4 18 -11 15 -16 -4 -5 -1 -9 6 -9 28 0 227 -182
335 -307 33 -38 62 -70 67 -71 4 -2 5 -8 1 -13 -3 -5 -1 -9 4 -9 5 0 24 -21
42 -47 19 -27 37 -50 41 -53 3 -3 13 -18 22 -35 8 -16 26 -43 40 -58 l24 -29
166 4 c91 1 169 7 173 11 11 11 -62 151 -105 203 -4 5 -14 21 -21 35 -17 31
-93 133 -102 137 -5 2 -8 8 -8 14 0 5 -6 15 -13 22 -7 8 -29 33 -48 57 -79
100 -336 346 -405 389 -13 8 -24 18 -24 22 0 5 -6 8 -14 8 -8 0 -16 4 -18 8
-4 12 -141 102 -223 147 -38 21 -73 43 -76 48 -3 5 -10 9 -15 9 -5 1 -40 16
-79 33 -122 57 -177 80 -215 90 -3 1 -12 5 -20 8 -22 9 -160 53 -195 62 -16 5
-34 9 -40 11 -40 11 -137 29 -210 39 -27 4 -63 9 -80 12 -38 6 -462 13 -467 8z"/>
<path d="M555 3882 c-18 -2 -20 -10 -18 -63 1 -33 4 -67 7 -75 3 -8 2 -14 -3
-14 -4 0 -7 -16 -7 -35 1 -19 4 -35 8 -35 4 0 3 -12 -1 -28 -5 -15 -4 -37 0
-50 5 -12 5 -22 1 -22 -8 0 -6 -125 2 -147 3 -7 2 -13 -2 -13 -8 0 -7 -133 1
-154 3 -7 1 -19 -3 -26 -5 -7 -4 -24 1 -37 5 -12 5 -23 1 -23 -4 0 -7 -16 -7
-35 0 -19 2 -35 6 -35 3 0 3 -20 -1 -44 -4 -25 -3 -52 2 -60 5 -9 5 -16 1 -16
-4 0 -9 -16 -10 -36 -1 -20 -7 -42 -14 -50 -6 -8 -8 -14 -4 -14 4 0 -5 -10
-21 -22 -16 -12 -31 -25 -34 -28 -8 -8 -32 -12 -80 -14 l-45 -2 -1 -44 c-2
-61 3 -72 26 -60 13 7 21 7 25 0 4 -6 9 -8 13 -6 4 2 28 7 53 10 51 7 109 32
109 47 0 6 4 8 9 5 5 -4 20 11 32 31 13 21 28 41 33 45 6 4 8 8 4 8 -4 0 -2
12 4 28 7 18 12 183 13 522 l2 495 -41 0 c-22 0 -50 -1 -61 -3z"/>
<path d="M1089 3879 c-5 -3 -12 -19 -15 -35 -19 -112 -26 -149 -35 -171 -6
-17 -6 -22 2 -17 8 4 8 1 1 -12 -5 -11 -13 -37 -16 -59 -4 -22 -8 -47 -11 -55
-2 -8 -6 -33 -10 -55 -3 -22 -8 -47 -10 -55 -3 -8 -7 -29 -9 -45 -3 -17 -7
-41 -11 -55 -3 -14 -8 -43 -11 -65 -3 -22 -7 -47 -8 -55 -1 -9 -5 -20 -9 -27
-4 -6 -4 -18 -1 -27 3 -9 1 -16 -5 -16 -7 0 -11 -6 -9 -12 1 -7 -2 -31 -6 -53
-5 -22 -10 -51 -11 -65 -1 -14 -8 -47 -15 -75 -7 -27 -14 -61 -15 -75 -2 -14
-6 -36 -9 -50 -12 -59 -15 -82 -10 -94 4 -10 35 -13 94 -7 3 1 7 9 8 19 2 21
10 57 12 57 1 0 3 9 4 20 19 130 24 148 42 141 7 -3 16 -1 19 4 3 6 16 5 31 0
32 -13 37 -12 29 0 -4 6 2 7 18 1 13 -5 30 -5 37 -1 8 5 19 6 25 2 15 -9 57
-9 77 0 10 5 20 4 24 -3 4 -8 9 -7 15 2 7 11 9 11 9 1 0 -7 4 -10 10 -7 10 6
18 -17 25 -70 2 -16 4 -30 5 -30 2 0 18 -88 22 -122 2 -14 46 -24 54 -12 3 5
13 5 23 0 26 -14 43 2 37 35 -2 16 -5 29 -6 29 -1 0 -4 11 -6 25 -2 14 -6 39
-9 55 -4 17 -6 38 -6 48 0 9 -3 17 -7 17 -4 0 -7 12 -6 28 1 15 -3 33 -9 40
-5 6 -7 12 -5 12 3 0 -1 30 -9 68 -8 37 -14 77 -14 90 1 12 -3 22 -7 22 -4 0
-8 12 -9 28 0 15 -4 43 -8 62 -4 19 -8 51 -11 70 -2 19 -6 41 -10 50 -4 8 -8
29 -10 45 -4 33 -12 70 -14 70 -1 0 -3 9 -5 20 -7 38 -14 80 -18 100 -5 23
-25 137 -31 175 -3 14 -5 25 -6 25 -2 0 -10 36 -12 55 -2 13 -18 16 -86 15
-46 0 -88 -3 -93 -6z m93 -161 c1 -15 5 -31 8 -38 1 -3 3 -18 5 -35 1 -16 3
-30 4 -30 3 0 6 -16 15 -65 7 -41 14 -80 21 -115 3 -14 7 -37 10 -52 3 -16 7
-37 10 -49 5 -23 16 -88 21 -119 1 -11 3 -20 4 -20 1 0 3 -10 6 -22 2 -13 6
-33 8 -45 3 -13 5 -25 6 -28 1 -3 1 -16 0 -30 -2 -28 -19 -43 -35 -31 -13 9
-86 8 -103 -2 -6 -5 -12 -4 -12 0 0 5 -26 9 -57 8 -53 0 -58 2 -59 23 -1 12 2
24 6 27 4 2 6 18 5 35 -1 16 2 30 6 30 4 0 6 8 4 18 -1 9 2 27 6 40 5 13 11
43 13 67 3 25 7 49 10 54 3 5 8 26 12 47 3 22 7 50 10 64 9 48 17 95 17 113 1
9 4 17 7 17 3 0 7 10 8 23 1 12 3 33 5 47 3 14 5 37 6 53 1 27 29 40 33 15z"/>
<path d="M1699 3880 c-5 -53 -2 -150 6 -150 7 0 7 -3 0 -8 -5 -4 -10 -20 -10
-37 0 -16 5 -33 10 -37 7 -5 7 -8 0 -8 -6 0 -10 -44 -10 -112 0 -64 4 -116 10
-120 7 -5 7 -8 0 -8 -10 0 -11 -90 -1 -115 2 -7 2 -16 -1 -19 -8 -8 -8 -81 1
-94 4 -7 4 -12 -1 -12 -10 0 -9 -212 1 -228 4 -7 4 -12 -1 -12 -8 0 -8 -93 1
-116 3 -7 2 -15 -2 -18 -6 -3 -7 -23 -3 -83 1 -11 37 -10 49 1 2 3 13 1 23 -4
14 -8 20 -6 27 7 5 10 8 221 6 468 -1 248 1 458 3 468 2 9 8 17 13 17 5 0 7
-7 4 -15 -4 -8 -1 -15 5 -15 6 0 10 -3 9 -7 -2 -10 21 -92 31 -113 5 -8 7 -23
5 -33 -1 -9 2 -15 7 -11 5 3 9 -6 9 -19 0 -13 3 -27 7 -31 4 -4 9 -19 11 -34
2 -14 8 -32 13 -39 9 -10 16 -38 21 -80 1 -7 6 -13 11 -13 5 0 7 -6 4 -14 -3
-7 -1 -18 4 -23 5 -5 10 -21 11 -36 1 -15 6 -27 10 -27 4 0 8 -8 8 -18 0 -10
3 -22 7 -26 4 -4 8 -13 8 -19 1 -16 24 -93 37 -126 6 -14 12 -30 13 -36 0 -5
4 -17 7 -25 3 -8 11 -35 19 -60 7 -25 17 -51 22 -57 5 -7 7 -13 4 -13 -3 0 -1
-13 4 -30 6 -16 15 -30 21 -30 5 0 7 -4 4 -8 -6 -10 62 -8 71 2 3 3 12 1 19
-5 8 -6 14 -6 18 0 7 11 9 1171 3 1177 -2 3 -25 6 -51 9 -42 3 -46 1 -47 -18
-1 -12 -1 -202 -1 -421 0 -337 -3 -402 -15 -414 -12 -12 -14 -13 -12 -1 1 8
-3 27 -9 42 -7 15 -14 42 -17 59 -3 17 -9 36 -13 42 -4 6 -7 13 -8 16 -1 3 -5
20 -9 38 -4 18 -12 35 -16 38 -5 3 -7 10 -3 15 3 5 1 15 -4 22 -6 7 -13 29
-17 50 -4 20 -11 37 -17 37 -5 0 -6 5 -3 10 4 6 1 17 -5 25 -7 8 -9 15 -5 15
4 0 2 7 -5 15 -7 8 -9 15 -5 15 4 0 3 6 -3 13 -6 6 -10 17 -10 22 0 15 -23 87
-33 108 -5 10 -7 22 -4 27 4 6 1 10 -4 10 -6 0 -10 3 -9 8 1 4 -5 27 -12 52
-8 25 -14 48 -16 53 -1 4 -3 9 -4 12 -1 3 -4 10 -5 15 -1 6 -3 11 -5 13 -2 3
-11 40 -12 54 -1 7 -11 16 -22 19 -25 9 -146 12 -147 4z"/>
<path d="M2474 3878 c-3 -4 -1 -8 4 -8 12 0 9 -123 -3 -132 -7 -5 -7 -8 0 -8
9 0 14 -424 5 -455 -1 -5 -1 -12 0 -15 1 -3 4 -86 6 -185 4 -204 5 -215 16
-215 4 0 8 -11 8 -25 0 -14 5 -25 10 -25 6 0 10 -5 10 -10 0 -15 67 -80 74
-73 3 4 6 1 6 -5 0 -7 9 -12 19 -12 11 0 22 -4 26 -10 3 -5 12 -7 20 -3 8 3
15 0 15 -7 0 -10 3 -10 15 0 10 8 15 9 15 1 0 -7 8 -8 24 -1 17 6 26 5 30 -3
3 -9 5 -8 5 1 1 7 6 10 11 7 6 -4 17 -1 25 5 12 10 15 10 15 0 0 -9 5 -8 18 3
10 10 21 15 24 12 9 -9 75 61 97 102 11 23 23 56 27 74 7 34 13 964 7 984 -3
9 -51 12 -98 6 -7 -1 -11 -167 -12 -473 -1 -260 -3 -482 -6 -493 -13 -70 -62
-115 -130 -121 -81 -6 -146 48 -154 128 -2 24 -5 249 -6 502 l-2 459 -58 1
c-32 1 -61 -2 -63 -6z"/>
<path d="M3438 3875 c-7 -5 -14 -15 -14 -20 -1 -6 -5 -32 -9 -59 -3 -27 -8
-52 -10 -56 -2 -3 -6 -24 -9 -46 -4 -22 -9 -51 -11 -64 -3 -14 -12 -61 -21
-105 -8 -44 -17 -89 -19 -100 -2 -11 -6 -33 -10 -50 -4 -16 -8 -41 -10 -55 -2
-14 -5 -25 -6 -25 -1 0 -3 -13 -4 -30 -2 -16 -4 -30 -5 -30 -1 0 -4 -11 -6
-25 -5 -33 -12 -65 -14 -65 -1 0 -3 -13 -5 -30 -1 -16 -3 -30 -5 -30 -1 0 -3
-9 -5 -20 -1 -11 -5 -35 -9 -52 -3 -18 -8 -45 -11 -60 -3 -16 -7 -39 -10 -53
-5 -21 -11 -59 -19 -105 -1 -5 -4 -14 -7 -20 -3 -5 -5 -25 -5 -44 1 -32 4 -35
32 -35 16 0 36 4 44 9 9 6 11 4 5 -6 -6 -11 -4 -10 8 1 9 8 19 33 22 55 4 22
8 49 10 60 2 11 7 34 10 50 12 66 16 77 29 72 7 -3 19 -1 26 3 8 5 19 6 24 2
15 -9 95 -9 90 0 -3 5 -1 8 5 8 5 0 11 -6 14 -12 3 -10 7 -10 20 1 12 9 17 10
17 2 0 -8 5 -9 19 -1 14 7 20 7 23 -2 3 -8 9 -8 25 0 27 15 49 -9 57 -63 7
-45 14 -80 16 -80 1 0 3 -17 5 -38 5 -57 27 -76 63 -54 6 5 12 4 12 0 0 -14
38 -13 43 1 5 12 2 41 -7 86 -17 76 -24 116 -31 169 -2 14 -4 26 -5 26 -2 0
-9 27 -15 65 -4 19 -8 46 -11 60 -3 14 -7 36 -9 50 -3 14 -8 41 -12 60 -4 19
-8 42 -9 50 -2 8 -6 27 -9 43 -3 15 -7 37 -9 50 -2 13 -9 48 -15 78 -6 30 -13
68 -16 84 -3 17 -8 46 -11 65 -4 19 -7 41 -7 48 0 6 -3 12 -7 12 -3 0 -7 15
-8 33 -2 31 -4 42 -17 100 -3 12 -7 37 -9 56 -3 18 -7 36 -10 39 -10 10 -165
8 -178 -3z m97 -176 c3 -13 7 -35 10 -49 7 -39 15 -82 21 -115 8 -45 12 -68
17 -91 7 -27 19 -93 21 -116 1 -10 5 -20 8 -24 4 -3 4 -12 1 -20 -3 -8 0 -20
6 -28 6 -7 9 -15 6 -17 -2 -3 0 -24 6 -47 5 -23 12 -59 15 -80 3 -20 8 -39 10
-41 2 -2 -1 -12 -7 -22 -7 -14 -15 -17 -27 -11 -9 4 -67 7 -128 7 l-111 -1 4
30 c2 17 5 43 7 57 1 14 5 30 8 35 3 5 4 17 3 27 -2 9 1 17 6 17 6 0 8 4 5 8
-3 4 -1 26 4 48 14 61 20 96 26 134 5 36 9 60 20 108 4 15 7 37 7 50 1 12 4
22 7 22 3 0 6 10 7 23 1 26 12 94 20 121 6 22 22 9 28 -25z"/>
<path d="M4048 3873 c-6 -7 -7 -13 -2 -13 5 0 8 -257 7 -585 -2 -322 1 -585 5
-585 4 0 14 4 22 10 9 5 19 5 27 -2 10 -8 13 -7 13 3 0 9 3 10 8 4 4 -6 14
-11 22 -10 13 0 16 37 20 255 l5 255 70 1 c39 1 76 -4 84 -10 11 -8 13 -8 8 1
-5 8 0 9 23 0 16 -6 30 -15 30 -19 0 -4 7 -8 16 -8 8 0 12 -4 9 -10 -3 -5 -2
-10 4 -10 21 0 34 -79 36 -239 3 -198 9 -219 59 -215 20 2 41 6 46 9 6 3 10 1
10 -5 0 -6 4 -8 10 -5 10 6 9 32 -1 50 -4 6 -7 75 -7 155 0 80 -3 159 -6 175
-6 35 -14 69 -16 73 -2 1 -3 5 -4 10 -3 19 -54 71 -85 87 l-35 18 25 19 c13
10 36 29 51 41 49 38 67 105 68 237 0 101 -3 131 -13 148 -5 6 -6 12 -3 12 9
0 -18 54 -39 81 -23 28 -68 59 -96 65 -10 2 -29 7 -41 10 -13 3 -90 7 -171 7
-108 2 -152 -1 -159 -10z m352 -120 c20 -17 37 -47 47 -83 5 -17 5 -201 0
-242 -4 -38 -42 -83 -85 -100 -21 -8 -70 -14 -112 -13 l-75 0 -2 185 c-1 102
-3 190 -4 195 -2 16 3 69 7 76 2 4 49 5 103 4 78 -3 104 -8 121 -22z"/>
<path d="M4760 3880 c0 -4 12 -40 26 -81 27 -79 31 -91 32 -99 0 -3 10 -29 21
-57 11 -29 18 -53 15 -53 -4 0 -2 -6 3 -12 6 -7 14 -26 18 -43 13 -47 13 -48
26 -85 24 -70 30 -88 31 -107 1 -7 5 -13 8 -13 6 0 19 -45 20 -65 0 -3 7 -19
15 -35 9 -17 13 -30 11 -30 -3 0 2 -16 10 -35 11 -26 14 -84 14 -248 0 -118 3
-217 7 -220 3 -4 12 -2 20 4 9 8 13 8 13 1 0 -7 10 -8 30 -2 20 6 30 5 30 -2
0 -6 3 -8 8 -4 4 4 8 107 8 228 1 138 5 223 12 230 6 6 8 16 6 23 -3 7 -1 16
5 20 6 3 11 17 11 31 0 13 5 24 10 24 6 0 9 3 8 8 -2 8 29 118 42 147 8 18 32
90 36 108 1 4 3 9 4 12 1 3 4 10 5 15 1 6 4 12 5 15 1 3 3 8 4 13 1 4 10 32
21 62 10 30 18 56 17 57 -1 2 7 23 18 48 11 25 17 45 13 45 -3 0 0 7 7 15 6 8
9 18 6 23 -3 5 1 17 8 28 26 35 12 41 -84 35 -12 -1 -38 -63 -65 -161 -21 -74
-28 -97 -35 -105 -5 -5 -11 -28 -15 -50 -4 -22 -12 -45 -17 -51 -5 -7 -8 -16
-7 -20 1 -5 0 -16 -3 -24 -9 -24 -17 -50 -18 -55 0 -3 -6 -21 -14 -40 -9 -20
-15 -37 -16 -40 -5 -37 -40 -39 -40 -2 0 17 -25 99 -47 157 -4 8 -5 19 -4 23
0 4 -4 18 -11 30 -7 12 -11 25 -10 29 1 4 -5 25 -13 45 -8 21 -16 47 -18 58
-2 11 -8 31 -14 45 -6 14 -18 52 -28 85 -10 33 -22 64 -26 69 -11 12 -50 14
-71 4 -10 -5 -18 -5 -18 0 0 5 -7 9 -15 9 -8 0 -15 -3 -15 -7z"/>
<path d="M5740 3878 c-19 -5 -38 -15 -42 -21 -4 -7 -8 -9 -8 -5 0 5 -12 -2
-26 -15 -28 -24 -61 -82 -68 -119 -3 -13 -5 -23 -7 -23 -3 0 -12 -158 -10
-180 1 -9 84 -12 101 -5 3 1 7 2 10 2 7 0 4 94 -3 106 -4 5 -4 12 0 16 3 3 7
16 9 28 4 36 22 78 34 78 6 0 8 5 5 10 -3 6 1 10 10 10 10 0 13 5 9 13 -4 6
-4 9 1 5 4 -4 14 -3 22 3 10 9 13 8 13 -1 0 -9 4 -9 13 -2 6 5 23 9 37 7 14
-1 35 -3 47 -4 30 -1 83 -58 83 -87 0 -13 4 -24 9 -24 12 0 5 -153 -8 -178 -6
-11 -11 -29 -11 -40 0 -11 -7 -25 -15 -32 -8 -7 -13 -16 -10 -20 3 -4 -2 -11
-10 -14 -8 -3 -14 -9 -13 -13 3 -9 -7 -22 -59 -78 -18 -20 -33 -37 -33 -40 0
-2 -21 -27 -47 -55 -57 -60 -62 -65 -93 -110 -14 -19 -31 -41 -37 -48 -7 -7
-13 -17 -13 -21 0 -5 -8 -26 -17 -47 -23 -53 -23 -55 -30 -171 -4 -70 -2 -103
5 -103 6 0 18 -3 28 -7 12 -4 15 -3 10 5 -5 8 -1 9 16 3 13 -5 33 -5 46 0 13
5 22 5 22 -1 0 -12 22 -9 32 5 5 6 8 6 8 -1 0 -11 40 -11 59 0 5 4 13 1 17 -5
4 -8 9 -7 15 2 5 8 9 9 9 4 0 -11 102 -11 119 -1 5 4 12 2 15 -2 6 -10 54 -8
63 2 4 3 11 2 17 -3 17 -14 31 10 31 54 0 26 -5 42 -15 46 -8 3 -97 5 -197 4
-119 0 -183 3 -184 10 -4 32 3 90 12 102 6 7 9 13 5 13 -9 0 51 107 72 129 24
24 135 151 190 216 33 39 83 120 89 145 3 14 9 30 14 35 10 14 26 113 24 151
-9 141 -61 230 -155 267 -43 17 -162 20 -210 5z"/>
<path d="M6457 3871 c-55 -29 -77 -45 -77 -58 0 -7 -4 -13 -9 -13 -11 0 -39
-69 -48 -118 -9 -52 -8 -309 1 -357 12 -60 52 -127 93 -154 73 -47 214 -33
267 28 41 46 46 31 42 -131 -2 -102 -8 -163 -17 -183 -12 -27 -21 -37 -65 -74
-7 -5 -14 -8 -17 -5 -2 2 -15 0 -28 -5 -17 -6 -37 -5 -62 4 -20 7 -38 10 -41
8 -5 -6 -42 47 -49 72 -4 11 -9 36 -12 55 -7 43 -18 50 -76 50 -41 0 -46 -2
-45 -22 1 -13 4 -27 7 -33 3 -5 6 -26 8 -45 3 -43 32 -93 80 -140 20 -20 38
-37 41 -37 3 -1 16 -6 31 -11 44 -17 172 -12 218 9 65 29 121 91 139 152 3 12
7 204 8 427 2 362 1 409 -14 442 -22 47 -81 118 -98 118 -8 0 -14 4 -14 9 0
16 -43 24 -138 26 -71 2 -101 -2 -125 -14z m216 -115 c15 -10 27 -25 27 -32 0
-8 4 -14 8 -14 4 0 9 -10 11 -22 5 -36 5 -311 0 -333 -14 -58 -75 -106 -137
-107 -44 0 -75 14 -111 49 -24 23 -25 27 -26 205 -1 198 4 221 59 257 37 25
129 23 169 -3z"/>
<path d="M1024 2199 c-2 -4 3 -12 11 -19 8 -7 15 -19 15 -26 0 -8 5 -14 10
-14 6 0 10 -12 10 -26 0 -14 4 -23 10 -19 9 5 12 -1 9 -21 0 -4 3 -10 8 -13 5
-3 20 -28 33 -55 14 -26 31 -50 37 -53 7 -3 11 -9 8 -13 -2 -4 6 -19 20 -34
13 -15 24 -29 23 -32 -1 -7 21 -40 40 -60 6 -7 12 -17 12 -23 0 -6 4 -11 8
-11 4 0 16 -15 27 -32 10 -18 24 -38 29 -44 6 -6 22 -25 36 -43 14 -18 39 -48
55 -66 17 -18 44 -51 62 -72 43 -52 111 -121 179 -179 31 -27 67 -59 79 -71
12 -13 27 -23 33 -23 6 0 12 -4 14 -8 2 -4 32 -30 68 -57 36 -27 71 -55 78
-62 7 -7 21 -13 29 -13 9 0 13 -3 10 -7 -4 -3 10 -16 30 -28 21 -12 75 -45
121 -73 46 -29 87 -52 90 -52 4 0 23 -10 42 -22 19 -12 37 -22 40 -23 3 0 16
-7 30 -15 14 -8 30 -15 35 -16 6 -2 53 -22 105 -44 52 -23 100 -43 105 -45 6
-1 19 -5 30 -9 11 -5 34 -12 50 -18 17 -5 39 -14 50 -18 20 -8 67 -21 95 -26
8 -2 33 -8 55 -14 22 -6 45 -12 50 -13 6 -1 15 -5 20 -9 6 -3 32 -9 58 -12 27
-4 59 -10 70 -13 12 -2 36 -6 52 -8 17 -2 52 -8 79 -13 40 -8 172 -15 244 -13
6 1 31 1 55 1 85 1 107 9 107 36 0 37 -13 40 -220 60 -30 2 -77 6 -105 9 -27
2 -66 7 -85 10 -19 4 -46 8 -60 9 -22 3 -162 32 -198 42 -7 2 -14 4 -17 4 -3
1 -19 6 -37 11 -18 6 -40 12 -49 14 -31 7 -115 33 -144 46 -16 6 -34 13 -40
15 -5 1 -37 12 -70 25 -33 13 -63 22 -67 21 -5 -1 -8 2 -8 8 0 5 -4 10 -10 10
-14 0 -201 91 -235 114 -16 12 -31 20 -33 18 -3 -3 -30 14 -157 97 -96 63
-122 82 -150 109 -8 6 -16 12 -20 12 -4 0 -12 6 -19 13 -8 6 -37 32 -66 57
-75 64 -226 214 -290 289 -30 35 -74 84 -97 108 -24 25 -43 48 -43 53 0 4 -7
13 -15 20 -8 7 -12 16 -9 21 3 5 1 9 -3 9 -5 0 -19 18 -33 40 -14 22 -28 40
-33 40 -4 0 -6 4 -3 9 4 5 1 11 -6 13 -6 2 -12 11 -14 20 -2 14 -40 75 -55 88
-8 7 -22 44 -21 53 1 4 -2 7 -7 7 -5 0 -16 12 -26 26 -9 15 -12 23 -5 19 8 -5
11 -3 8 6 -3 8 -13 13 -22 13 -9 -1 -16 2 -16 7 0 11 -23 7 -32 -6 -5 -6 -8
-6 -8 2 0 12 -38 14 -46 2z"/>
<path d="M1389 2208 c-7 -24 -5 -40 7 -45 8 -3 14 -11 14 -18 0 -8 6 -20 13
-27 17 -19 35 -48 47 -76 6 -14 15 -20 21 -16 7 4 10 1 7 -7 -4 -13 57 -103
130 -188 46 -55 264 -273 323 -324 63 -55 160 -127 169 -127 5 0 15 -6 22 -13
42 -43 327 -197 463 -252 39 -15 83 -33 100 -41 16 -7 33 -10 37 -8 4 3 8 0 8
-7 0 -7 2 -10 6 -7 3 3 27 -3 55 -13 27 -10 49 -17 49 -14 0 3 8 1 18 -4 18
-10 54 -19 99 -26 12 -2 37 -8 55 -13 18 -6 51 -13 73 -17 22 -3 51 -8 65 -11
23 -4 58 -8 175 -19 81 -8 450 -4 450 5 0 0 25 3 55 5 30 2 69 6 85 9 31 6 86
16 120 21 11 2 35 8 53 13 18 6 35 11 37 11 3 1 6 1 8 2 1 0 11 2 22 4 11 1
43 10 70 19 28 9 60 19 71 21 89 19 510 218 522 247 2 4 8 8 12 8 5 0 27 12
48 28 22 15 68 47 103 71 35 24 66 47 69 50 3 3 32 28 65 56 33 27 77 66 98
87 20 21 37 35 37 32 0 -4 10 6 22 21 12 16 36 43 53 60 65 69 158 180 195
235 8 12 21 29 28 36 7 8 10 14 5 14 -4 0 -3 4 2 8 16 10 115 165 115 178 0 7
-8 15 -17 20 -27 11 -283 14 -320 2 -22 -6 -49 -31 -84 -76 -29 -37 -56 -68
-61 -70 -4 -2 -8 -8 -8 -12 0 -17 -196 -220 -212 -220 -5 0 -6 -4 -3 -10 3 -5
3 -10 -2 -10 -4 0 -25 -15 -45 -33 -47 -41 -91 -75 -137 -107 -20 -14 -42 -31
-49 -37 -7 -7 -34 -25 -60 -40 -26 -15 -50 -32 -54 -38 -4 -5 -8 -6 -8 -2 0 5
-12 0 -27 -11 -25 -18 -171 -95 -183 -97 -3 0 -43 -16 -90 -34 -47 -18 -89
-34 -95 -35 -5 -1 -15 -4 -20 -8 -6 -3 -27 -9 -48 -13 -20 -4 -40 -11 -43 -16
-3 -5 -9 -7 -14 -4 -5 3 -20 1 -34 -5 -26 -9 -45 -14 -103 -25 -16 -3 -41 -8
-58 -12 -52 -11 -58 -12 -140 -19 -90 -8 -405 -11 -419 -5 -5 2 -28 5 -50 7
-50 2 -111 12 -181 29 -11 3 -38 9 -60 14 -22 5 -67 17 -100 26 -33 9 -64 18
-70 19 -10 3 -27 9 -80 29 -16 7 -32 12 -35 12 -13 1 -106 39 -115 47 -5 4
-17 8 -26 8 -10 0 -19 3 -21 8 -1 4 -34 23 -73 42 -64 32 -193 107 -205 120
-3 3 -30 22 -60 43 -30 20 -69 50 -87 65 -18 15 -49 41 -69 57 -55 45 -183
174 -234 234 -25 30 -50 59 -55 65 -6 6 -22 27 -35 46 -31 45 -46 60 -59 60
-6 0 -11 4 -11 10 0 5 -9 6 -22 2 -13 -4 -45 -6 -73 -5 -163 9 -211 8 -224 -1
-11 -8 -13 -8 -7 2 4 6 2 12 -3 12 -6 0 -11 -1 -12 -2z"/>
<path d="M3697 696 c-26 -20 -30 -54 -7 -66 27 -14 66 -12 79 4 15 17 4 66
-14 66 -7 0 -19 2 -27 5 -7 2 -21 -2 -31 -9z"/>
<path d="M3857 686 c-8 -20 20 -43 35 -28 14 14 3 42 -16 42 -7 0 -16 -6 -19
-14z"/>
</g>
</svg>
