<svg data-v-423bf9ae="" xmlns="http://www.w3.org/2000/svg" viewBox="0 0 353.80915490326566 60" class="font"><!----><!----><defs data-v-423bf9ae=""><linearGradient data-v-423bf9ae="" gradientTransform="rotate(25)" id="e2ddeee8-d14e-471a-889c-3fee7c6512ea" x1="0%" y1="0%" x2="100%" y2="0%"><stop data-v-423bf9ae="" offset="0%" style="stop-color: rgb(255, 107, 107); stop-opacity: 1;"></stop><stop data-v-423bf9ae="" offset="100%" style="stop-color: rgb(138, 166, 230); stop-opacity: 1;"></stop></linearGradient></defs><g data-v-423bf9ae="" id="a1eb5fa0-c885-4054-abe1-b43ca22edf7e" fill="url(#e2ddeee8-d14e-471a-889c-3fee7c6512ea)" transform="matrix(4.654771016439969,0,0,4.654771016439969,-0.5120198943194794,-11.031807253103615)"><path d="M4.97 9.70L4.97 3.63L3.58 3.33L3.58 2.52L7.90 2.52L7.90 3.33L6.79 3.63L6.79 9.55L6.79 9.55Q6.79 10.28 6.55 10.86L6.55 10.86L6.55 10.86Q6.31 11.45 5.88 11.87L5.88 11.87L5.88 11.87Q5.45 12.29 4.84 12.52L4.84 12.52L4.84 12.52Q4.23 12.75 3.49 12.75L3.49 12.75L3.49 12.75Q2.73 12.75 2.11 12.57L2.11 12.57L2.11 12.57Q1.50 12.39 1.05 12.05L1.05 12.05L1.05 12.05Q0.60 11.72 0.36 11.26L0.36 11.26L0.36 11.26Q0.11 10.79 0.11 10.22L0.11 10.22L0.11 10.22Q0.11 9.58 0.39 9.17L0.39 9.17L0.39 9.17Q0.67 8.76 1.23 8.76L1.23 8.76L1.23 8.76Q1.72 8.76 2.03 9.04L2.03 9.04L2.03 9.04Q2.34 9.32 2.34 9.79L2.34 9.79L2.34 9.79Q2.34 10.11 2.16 10.44L2.16 10.44L2.16 10.44Q1.97 10.77 1.74 10.88L1.74 10.88L1.74 10.88Q1.81 11.24 2.21 11.49L2.21 11.49L2.21 11.49Q2.60 11.73 3.36 11.73L3.36 11.73L3.36 11.73Q4.13 11.73 4.55 11.23L4.55 11.23L4.55 11.23Q4.97 10.72 4.97 9.70L4.97 9.70ZM8.36 10.95L8.36 10.95L8.36 10.95Q8.36 10.37 8.62 9.93L8.62 9.93L8.62 9.93Q8.88 9.49 9.42 9.16L9.42 9.16L9.42 9.16Q9.95 8.82 10.79 8.58L10.79 8.58L10.79 8.58Q11.62 8.34 12.77 8.16L12.77 8.16L12.77 8.16Q12.70 7.46 12.61 7.09L12.61 7.09L12.61 7.09Q12.52 6.72 12.36 6.44L12.36 6.44L12.36 6.44Q12.17 6.12 11.91 5.92L11.91 5.92L11.91 5.92Q11.65 5.73 11.24 5.73L11.24 5.73L11.24 5.73Q10.95 5.73 10.70 5.84L10.70 5.84L10.70 5.84Q10.46 5.95 10.37 6.15L10.37 6.15L10.37 6.15Q10.57 6.26 10.65 6.46L10.65 6.46L10.65 6.46Q10.72 6.66 10.72 6.82L10.72 6.82L10.72 6.82Q10.72 7.17 10.42 7.44L10.42 7.44L10.42 7.44Q10.11 7.71 9.67 7.71L9.67 7.71L9.67 7.71Q9.23 7.71 8.98 7.43L8.98 7.43L8.98 7.43Q8.74 7.14 8.74 6.71L8.74 6.71L8.74 6.71Q8.74 6.27 8.97 5.94L8.97 5.94L8.97 5.94Q9.21 5.60 9.60 5.37L9.60 5.37L9.60 5.37Q10.00 5.14 10.48 5.02L10.48 5.02L10.48 5.02Q10.96 4.90 11.45 4.90L11.45 4.90L11.45 4.90Q12.11 4.90 12.64 5.09L12.64 5.09L12.64 5.09Q13.16 5.28 13.48 5.56L13.48 5.56L13.48 5.56Q14.59 6.54 14.59 8.67L14.59 8.67L14.59 10.49L14.59 10.49Q14.59 11.19 14.68 11.45L14.68 11.45L14.68 11.45Q14.77 11.70 15.08 11.70L15.08 11.70L15.71 11.70L15.71 12.33L15.71 12.33Q14.42 12.74 13.76 12.74L13.76 12.74L13.76 12.74Q13.52 12.74 13.38 12.67L13.38 12.67L13.38 12.67Q13.23 12.60 13.15 12.43L13.15 12.43L13.15 12.43Q13.06 12.26 13.03 11.97L13.03 11.97L13.03 11.97Q12.99 11.68 12.99 11.21L12.99 11.21L12.94 11.21L12.94 11.21Q12.50 11.93 11.79 12.33L11.79 12.33L11.79 12.33Q11.07 12.74 10.25 12.74L10.25 12.74L10.25 12.74Q9.37 12.74 8.86 12.26L8.86 12.26L8.86 12.26Q8.36 11.79 8.36 10.95ZM11.10 11.72L11.10 11.72L11.10 11.72Q11.40 11.72 11.75 11.53L11.75 11.53L11.75 11.53Q12.11 11.34 12.38 10.98L12.38 10.98L12.38 10.98Q12.53 10.78 12.67 10.42L12.67 10.42L12.67 10.42Q12.81 10.05 12.81 9.55L12.81 9.55L12.81 9.55Q12.81 9.38 12.80 9.18L12.80 9.18L12.80 9.18Q12.78 8.97 12.75 8.78L12.75 8.78L12.75 8.78Q12.03 8.93 11.54 9.11L11.54 9.11L11.54 9.11Q11.06 9.28 10.77 9.49L10.77 9.49L10.77 9.49Q10.47 9.70 10.35 9.97L10.35 9.97L10.35 9.97Q10.22 10.25 10.22 10.60L10.22 10.60L10.22 10.60Q10.22 11.21 10.50 11.47L10.50 11.47L10.50 11.47Q10.78 11.72 11.10 11.72ZM17.14 11.55L17.14 6.09L16.06 5.82L16.06 5.04L18.49 5.04L18.80 6.44L18.86 6.44L18.86 6.44Q19.28 5.73 19.98 5.31L19.98 5.31L19.98 5.31Q20.69 4.90 21.52 4.90L21.52 4.90L21.52 4.90Q22.08 4.90 22.53 5.10L22.53 5.10L22.53 5.10Q22.97 5.29 23.24 5.66L23.24 5.66L23.24 5.66Q23.52 6.05 23.64 6.75L23.64 6.75L23.64 6.75Q23.76 7.46 23.76 8.67L23.76 8.67L23.76 11.55L24.84 11.82L24.84 12.60L21.04 12.60L21.04 11.82L21.98 11.55L21.98 8.85L21.98 8.85Q21.98 8.01 21.93 7.54L21.93 7.54L21.93 7.54Q21.88 7.07 21.76 6.79L21.76 6.79L21.76 6.79Q21.60 6.43 21.34 6.29L21.34 6.29L21.34 6.29Q21.07 6.15 20.71 6.15L20.71 6.15L20.71 6.15Q20.02 6.15 19.54 6.59L19.54 6.59L19.54 6.59Q18.97 7.13 18.91 8.23L18.91 8.23L18.91 11.55L19.85 11.82L19.85 12.60L16.06 12.60L16.06 11.82L17.14 11.55ZM28.11 5.04L28.11 8.79L28.11 8.79Q28.11 9.24 28.12 9.57L28.12 9.57L28.12 9.57Q28.13 9.90 28.15 10.14L28.15 10.14L28.15 10.14Q28.17 10.39 28.20 10.56L28.20 10.56L28.20 10.56Q28.24 10.72 28.28 10.85L28.28 10.85L28.28 10.85Q28.39 11.19 28.65 11.36L28.65 11.36L28.65 11.36Q28.91 11.54 29.18 11.54L29.18 11.54L29.18 11.54Q29.55 11.54 29.86 11.40L29.86 11.40L29.86 11.40Q30.17 11.26 30.44 11.02L30.44 11.02L30.44 11.02Q30.74 10.74 30.89 10.37L30.89 10.37L30.89 10.37Q31.04 10.00 31.07 9.41L31.07 9.41L31.07 6.09L29.85 5.82L29.85 5.04L32.84 5.04L32.84 11.55L33.92 11.82L33.92 12.60L31.33 12.74L31.18 11.20L31.12 11.20L31.12 11.20Q30.72 11.91 30.02 12.33L30.02 12.33L30.02 12.33Q29.32 12.74 28.52 12.74L28.52 12.74L28.52 12.74Q27.99 12.74 27.55 12.54L27.55 12.54L27.55 12.54Q27.10 12.35 26.85 11.98L26.85 11.98L26.85 11.98Q26.57 11.59 26.45 10.88L26.45 10.88L26.45 10.88Q26.33 10.18 26.33 8.97L26.33 8.97L26.33 6.09L25.40 5.82L25.40 5.04L28.11 5.04ZM34.61 10.95L34.61 10.95L34.61 10.95Q34.61 10.37 34.87 9.93L34.87 9.93L34.87 9.93Q35.13 9.49 35.66 9.16L35.66 9.16L35.66 9.16Q36.20 8.82 37.04 8.58L37.04 8.58L37.04 8.58Q37.87 8.34 39.02 8.16L39.02 8.16L39.02 8.16Q38.95 7.46 38.86 7.09L38.86 7.09L38.86 7.09Q38.77 6.72 38.61 6.44L38.61 6.44L38.61 6.44Q38.42 6.12 38.16 5.92L38.16 5.92L38.16 5.92Q37.90 5.73 37.49 5.73L37.49 5.73L37.49 5.73Q37.20 5.73 36.95 5.84L36.95 5.84L36.95 5.84Q36.71 5.95 36.62 6.15L36.62 6.15L36.62 6.15Q36.82 6.26 36.90 6.46L36.90 6.46L36.90 6.46Q36.97 6.66 36.97 6.82L36.97 6.82L36.97 6.82Q36.97 7.17 36.67 7.44L36.67 7.44L36.67 7.44Q36.36 7.71 35.92 7.71L35.92 7.71L35.92 7.71Q35.48 7.71 35.23 7.43L35.23 7.43L35.23 7.43Q34.99 7.14 34.99 6.71L34.99 6.71L34.99 6.71Q34.99 6.27 35.22 5.94L35.22 5.94L35.22 5.94Q35.46 5.60 35.85 5.37L35.85 5.37L35.85 5.37Q36.25 5.14 36.73 5.02L36.73 5.02L36.73 5.02Q37.21 4.90 37.70 4.90L37.70 4.90L37.70 4.90Q38.36 4.90 38.89 5.09L38.89 5.09L38.89 5.09Q39.41 5.28 39.73 5.56L39.73 5.56L39.73 5.56Q40.84 6.54 40.84 8.67L40.84 8.67L40.84 10.49L40.84 10.49Q40.84 11.19 40.93 11.45L40.93 11.45L40.93 11.45Q41.02 11.70 41.33 11.70L41.33 11.70L41.96 11.70L41.96 12.33L41.96 12.33Q40.67 12.74 40.01 12.74L40.01 12.74L40.01 12.74Q39.77 12.74 39.63 12.67L39.63 12.67L39.63 12.67Q39.48 12.60 39.40 12.43L39.40 12.43L39.40 12.43Q39.31 12.26 39.28 11.97L39.28 11.97L39.28 11.97Q39.24 11.68 39.24 11.21L39.24 11.21L39.19 11.21L39.19 11.21Q38.75 11.93 38.04 12.33L38.04 12.33L38.04 12.33Q37.32 12.74 36.50 12.74L36.50 12.74L36.50 12.74Q35.62 12.74 35.11 12.26L35.11 12.26L35.11 12.26Q34.61 11.79 34.61 10.95ZM37.35 11.72L37.35 11.72L37.35 11.72Q37.65 11.72 38.00 11.53L38.00 11.53L38.00 11.53Q38.36 11.34 38.63 10.98L38.63 10.98L38.63 10.98Q38.78 10.78 38.92 10.42L38.92 10.42L38.92 10.42Q39.06 10.05 39.06 9.55L39.06 9.55L39.06 9.55Q39.06 9.38 39.05 9.18L39.05 9.18L39.05 9.18Q39.03 8.97 39.00 8.78L39.00 8.78L39.00 8.78Q38.28 8.93 37.79 9.11L37.79 9.11L37.79 9.11Q37.31 9.28 37.02 9.49L37.02 9.49L37.02 9.49Q36.72 9.70 36.60 9.97L36.60 9.97L36.60 9.97Q36.47 10.25 36.47 10.60L36.47 10.60L36.47 10.60Q36.47 11.21 36.75 11.47L36.75 11.47L36.75 11.47Q37.03 11.72 37.35 11.72ZM46.49 6.06L46.49 6.06L46.49 6.06Q46.37 6.06 46.23 6.17L46.23 6.17L46.23 6.17Q46.09 6.29 45.96 6.45L45.96 6.45L45.96 6.45Q45.82 6.62 45.72 6.81L45.72 6.81L45.72 6.81Q45.61 7.00 45.56 7.14L45.56 7.14L45.56 7.14Q45.39 7.63 45.26 8.13L45.26 8.13L45.26 8.13Q45.14 8.62 45.14 9.35L45.14 9.35L45.14 11.55L46.65 11.82L46.65 12.60L42.28 12.60L42.28 11.82L43.36 11.55L43.36 5.88L42.28 5.61L42.28 5.04L44.72 5.04L45.02 6.89L45.08 6.89L45.08 6.89Q45.40 5.92 45.94 5.41L45.94 5.41L45.94 5.41Q46.48 4.90 47.15 4.90L47.15 4.90L47.15 4.90Q47.70 4.90 48.06 5.24L48.06 5.24L48.06 5.24Q48.43 5.59 48.43 6.16L48.43 6.16L48.43 6.16Q48.43 6.58 48.17 6.92L48.17 6.92L48.17 6.92Q47.92 7.27 47.46 7.27L47.46 7.27L47.46 7.27Q46.89 7.27 46.66 7.01L46.66 7.01L46.66 7.01Q46.42 6.75 46.42 6.44L46.42 6.44L46.42 6.44Q46.42 6.34 46.44 6.28L46.44 6.28L46.44 6.28Q46.45 6.22 46.49 6.06ZM55.92 6.09L53.66 12.26L53.66 12.26Q53.31 13.08 53.03 13.65L53.03 13.65L53.03 13.65Q52.74 14.22 52.42 14.58L52.42 14.58L52.42 14.58Q52.11 14.94 51.73 15.10L51.73 15.10L51.73 15.10Q51.35 15.26 50.81 15.26L50.81 15.26L50.81 15.26Q50.47 15.26 50.18 15.17L50.18 15.17L50.18 15.17Q49.90 15.08 49.68 14.91L49.68 14.91L49.68 14.91Q49.46 14.74 49.34 14.52L49.34 14.52L49.34 14.52Q49.21 14.29 49.21 14.03L49.21 14.03L49.21 14.03Q49.21 13.54 49.50 13.22L49.50 13.22L49.50 13.22Q49.78 12.91 50.25 12.91L50.25 12.91L50.25 12.91Q50.65 12.91 50.87 13.09L50.87 13.09L50.87 13.09Q51.09 13.27 51.09 13.64L51.09 13.64L51.09 13.64Q51.09 13.71 51.05 13.81L51.05 13.81L51.05 13.81Q51.02 13.92 50.94 14.02L50.94 14.02L50.94 14.02Q50.86 14.13 50.74 14.20L50.74 14.20L50.74 14.20Q50.61 14.27 50.44 14.27L50.44 14.27L50.44 14.27Q50.47 14.41 50.60 14.46L50.60 14.46L50.60 14.46Q50.74 14.50 50.85 14.50L50.85 14.50L50.85 14.50Q50.99 14.50 51.12 14.47L51.12 14.47L51.12 14.47Q51.25 14.43 51.39 14.30L51.39 14.30L51.39 14.30Q51.52 14.17 51.67 13.91L51.67 13.91L51.67 13.91Q51.81 13.65 51.98 13.22L51.98 13.22L52.15 12.70L49.34 6.09L48.50 5.82L48.50 5.04L52.05 5.04L52.16 5.82L51.17 6.09L52.89 10.95L52.95 10.95L54.50 6.09L53.69 5.82L53.69 5.04L56.77 5.04L56.77 5.82L55.92 6.09ZM61.96 11.06L65.95 11.06L66.29 9.27L67.48 9.27L67.48 12.60L60.41 12.60L60.41 11.68L60.41 11.68Q60.41 10.95 60.79 10.34L60.79 10.34L60.79 10.34Q61.17 9.73 61.73 9.18L61.73 9.18L61.73 9.18Q62.30 8.64 62.97 8.13L62.97 8.13L62.97 8.13Q63.63 7.63 64.20 7.12L64.20 7.12L64.20 7.12Q64.76 6.61 65.14 6.05L65.14 6.05L65.14 6.05Q65.52 5.49 65.52 4.84L65.52 4.84L65.52 4.84Q65.52 4.13 65.04 3.73L65.04 3.73L65.04 3.73Q64.55 3.33 63.69 3.33L63.69 3.33L63.69 3.33Q62.90 3.33 62.48 3.67L62.48 3.67L62.48 3.67Q62.06 4.00 61.94 4.69L61.94 4.69L61.94 4.69Q62.38 4.69 62.62 4.92L62.62 4.92L62.62 4.92Q62.86 5.15 62.86 5.53L62.86 5.53L62.86 5.53Q62.86 5.94 62.58 6.16L62.58 6.16L62.58 6.16Q62.30 6.38 61.84 6.38L61.84 6.38L61.84 6.38Q61.59 6.38 61.36 6.31L61.36 6.31L61.36 6.31Q61.14 6.23 60.96 6.06L60.96 6.06L60.96 6.06Q60.79 5.89 60.69 5.63L60.69 5.63L60.69 5.63Q60.59 5.36 60.59 4.97L60.59 4.97L60.59 4.97Q60.59 4.41 60.82 3.93L60.82 3.93L60.82 3.93Q61.04 3.44 61.47 3.10L61.47 3.10L61.47 3.10Q61.89 2.76 62.50 2.56L62.50 2.56L62.50 2.56Q63.11 2.37 63.88 2.37L63.88 2.37L63.88 2.37Q64.64 2.37 65.28 2.56L65.28 2.56L65.28 2.56Q65.91 2.76 66.37 3.12L66.37 3.12L66.37 3.12Q66.84 3.47 67.09 3.98L67.09 3.98L67.09 3.98Q67.35 4.48 67.35 5.11L67.35 5.11L67.35 5.11Q67.35 5.92 66.96 6.58L66.96 6.58L66.96 6.58Q66.56 7.24 65.95 7.78L65.95 7.78L65.95 7.78Q65.35 8.33 64.66 8.78L64.66 8.78L64.66 8.78Q63.97 9.23 63.36 9.62L63.36 9.62L63.36 9.62Q62.76 10.01 62.36 10.36L62.36 10.36L62.36 10.36Q61.96 10.71 61.96 11.06L61.96 11.06ZM74.37 7.42L74.31 7.42L74.31 7.42Q73.92 7.94 73.26 8.23L73.26 8.23L73.26 8.23Q72.60 8.53 71.83 8.53L71.83 8.53L71.83 8.53Q71.16 8.53 70.62 8.30L70.62 8.30L70.62 8.30Q70.07 8.08 69.68 7.68L69.68 7.68L69.68 7.68Q69.29 7.28 69.07 6.71L69.07 6.71L69.07 6.71Q68.85 6.15 68.85 5.45L68.85 5.45L68.85 5.45Q68.85 4.73 69.10 4.16L69.10 4.16L69.10 4.16Q69.34 3.60 69.78 3.20L69.78 3.20L69.78 3.20Q70.22 2.80 70.85 2.58L70.85 2.58L70.85 2.58Q71.48 2.37 72.25 2.37L72.25 2.37L72.25 2.37Q74.24 2.37 75.18 3.57L75.18 3.57L75.18 3.57Q76.12 4.77 76.12 7.27L76.12 7.27L76.12 7.27Q76.12 9.95 75.12 11.35L75.12 11.35L75.12 11.35Q74.13 12.74 72.10 12.74L72.10 12.74L72.10 12.74Q71.46 12.74 70.92 12.57L70.92 12.57L70.92 12.57Q70.39 12.40 70.01 12.09L70.01 12.09L70.01 12.09Q69.64 11.77 69.43 11.35L69.43 11.35L69.43 11.35Q69.22 10.92 69.22 10.39L69.22 10.39L69.22 10.39Q69.22 9.84 69.50 9.48L69.50 9.48L69.50 9.48Q69.78 9.13 70.35 9.13L70.35 9.13L70.35 9.13Q70.92 9.13 71.20 9.39L71.20 9.39L71.20 9.39Q71.48 9.66 71.48 10.07L71.48 10.07L71.48 10.07Q71.48 10.46 71.23 10.69L71.23 10.69L71.23 10.69Q70.98 10.92 70.56 10.92L70.56 10.92L70.56 10.92Q70.64 11.31 71.03 11.54L71.03 11.54L71.03 11.54Q71.41 11.76 71.97 11.76L71.97 11.76L71.97 11.76Q73.25 11.76 73.82 10.88L73.82 10.88L73.82 10.88Q74.40 10.01 74.40 8.08L74.40 8.08L74.40 8.08Q74.40 7.88 74.40 7.74L74.40 7.74L74.40 7.74Q74.40 7.60 74.37 7.42L74.37 7.42ZM70.77 5.45L70.77 5.45L70.77 5.45Q70.77 7.52 72.42 7.52L72.42 7.52L72.42 7.52Q73.19 7.52 73.63 7.00L73.63 7.00L73.63 7.00Q74.07 6.48 74.07 5.45L74.07 5.45L74.07 5.45Q74.07 4.40 73.63 3.87L73.63 3.87L73.63 3.87Q73.19 3.35 72.42 3.35L72.42 3.35L72.42 3.35Q70.77 3.35 70.77 5.45Z"></path></g><!----><!----></svg>